PathFileType	4	(X/Y/Z)	Patient4_TMGait_0pt3_03_left_02.trc.trc
DataRate	CameraRate	NumFrames	NumMarkers	Units	OrigDataRate	OrigDataStartFrame	OrigNumFrames
53.030303030303	53.030303030303	6	33	mm	53.030303030303	53	       141
Frame#	Time	Sacral			L.Shoulder			Chest			R.Shoulder			Neck			R.ASIS			L.ASIS			R.Thigh.Superior			R.Thigh.Lateral			R.Thigh.Inferior			R.Patella			L.Thigh.Superior			L.Thigh.Lateral			L.Thigh.Inferior			L.Patella			L.Shank.Superior			L.Shank.Lateral			L.Shank.Inferior			R.Shank.Superior			R.Shank.Lateral			R.Shank.Inferior			R.Heel			R.Midfoot.Superior			R.Midfoot.Lateral			R.Toe			L.Heel			L.Midfoot.Lateral			L.Midfoot.Superior			L.Toe			L.Elbow			L.Wrist			R.Elbow			R.Wrist			
		X1	Y1	Z1	X2	Y2	Z2	X3	Y3	Z3	X4	Y4	Z4	X5	Y5	Z5	X6	Y6	Z6	X7	Y7	Z7	X8	Y8	Z8	X9	Y9	Z9	X10	Y10	Z10	X11	Y11	Z11	X12	Y12	Z12	X13	Y13	Z13	X14	Y14	Z14	X15	Y15	Z15	X16	Y16	Z16	X17	Y17	Z17	X18	Y18	Z18	X19	Y19	Z19	X20	Y20	Z20	X21	Y21	Z21	X22	Y22	Z22	X23	Y23	Z23	X24	Y24	Z24	X25	Y25	Z25	X26	Y26	Z26	X27	Y27	Z27	X28	Y28	Z28	X29	Y29	Z29	X30	Y30	Z30	X31	Y31	Z31	X32	Y32	Z32	X33	Y33	Z33	

53	3.650571428571	789.937196282868	986.711698626124	406.354521303948	976.343189853845	1414.270419557980	226.920347704654	1083.930096412069	1335.359829417855	379.702114605839	1016.059253451125	1404.538247419301	561.346125124102	974.100507834310	1472.709484959787	387.941548827005	1025.458286203070	911.661289978796	506.447287995217	995.861772964878	942.707125619920	236.115209253450	1079.579404422946	719.390385931777	470.967419372437	1020.427061289744	607.604763230876	546.304478726430	1093.430779247608	552.648779230581	458.060688053961	1090.286181167242	438.819293862447	482.825732758962	1065.575393849019	740.921973062526	281.182029196592	995.477181642405	610.690320103195	229.668222874989	1084.865301555945	545.595614299279	303.116990919858	1091.282176478883	468.349042045174	313.596413878482	1047.180709003828	394.224807008402	308.293339238820	940.986159669662	297.247358133524	253.395826256168	960.206447462290	181.766874260592	329.017681199935	1001.996217183543	381.448687777104	501.769810345089	878.685203181963	368.627473003890	570.387963358183	842.646414049649	260.970793755150	531.063384778881	632.165540154897	238.377986566941	514.591409332910	788.255133931723	149.541492500784	559.837323427523	680.829305083267	174.108897149043	592.063090463796	829.415990038799	30.924361526639	592.138388887444	805.145419455288	41.793053562489	362.662061154605	882.266308601149	37.040934831696	285.910718925921	966.571974426439	95.516412161053	317.162475673548	1094.189765593205	39.230380624914	291.959568298881	977.121653773556	1067.166399189322	89.063881540869	1075.184635049145	825.304442301983	81.696051217053	990.102851585257	1050.050564506540	672.687736177723	1050.233848724348	797.279057227975	648.437042382013	
54	3.669428571429	788.883127521220	983.188075081037	403.747881828847	977.291493694108	1411.856358194352	227.248817612182	1082.918942437909	1332.519277767903	381.142492648552	1012.594081622287	1400.492701489497	562.344834813835	973.085343659114	1469.803889697136	388.726875957690	1024.184117800437	909.205527644891	505.797740191072	996.594355244832	940.050385063190	235.137759827627	1083.560753436430	720.258680501555	468.932460070219	1028.354973875638	607.189747960544	544.414407479820	1102.601804081388	554.244466641563	455.598056599432	1102.253820738741	439.596563966859	480.563902983593	1067.020771430129	738.577043373897	281.164480379844	997.888768631409	607.851053070202	229.787688360789	1086.861036224119	543.233923775997	304.549514394131	1093.297762184044	465.547968014165	315.326237878455	1047.777133398095	391.398265891197	309.650289626758	940.249444932558	296.236349978378	253.987980215507	956.715399724628	180.452938729659	329.553351239975	1013.353538611252	381.707384700311	499.744700610099	888.953404164940	370.320830736157	567.202382316596	852.736154443082	262.417613975239	528.814256933960	641.987189375930	240.419219055673	510.226238347193	797.805923346004	152.183627455556	558.604557796355	689.815869044531	177.436653245645	589.305089591085	838.217551945457	32.377038028443	593.519641103536	799.573466020044	42.047480105130	362.539348691930	876.720054053239	37.152047209101	285.847011035687	961.108067037383	95.370814708613	317.328650161930	1088.618966479613	39.082200396717	291.879687396157	986.451929801673	1065.381109529019	87.748298369950	1089.093445171816	825.383563152323	82.136952085559	973.006159210199	1048.195139045672	674.929164866153	1018.733739123063	791.776960449225	659.967659960674	
55	3.688285714286	787.827107614851	980.096535673666	401.368402493527	978.377612884708	1409.703860978883	227.796259196321	1081.896762761590	1330.057785395493	382.920944673853	1008.919496620866	1397.058869162673	563.486191962647	972.072632921096	1467.259348845947	389.621668172291	1022.675808294735	907.063775448462	505.695155738342	997.471540110185	937.679350185467	234.697109659103	1086.898583816105	721.541624817182	467.597706288523	1035.460321827517	607.349551138400	543.178110247785	1110.911870976426	556.407830648446	453.915907727182	1113.481484647647	441.196058667675	479.067736037576	1068.191880785459	736.300190493777	281.576603501438	999.773937665292	605.283238020530	230.123290247436	1088.148511471317	540.943296996768	306.182057958983	1094.489515904420	462.938717447492	317.254814536010	1047.693633265112	388.806740538437	311.116230670815	939.046319125918	295.304477180015	254.627965857873	952.988736118531	179.240795831094	330.095296909386	1024.442247317589	382.370468683893	498.437963381693	899.138309085806	371.300050629032	564.726930570390	863.712340444676	262.884293709981	527.148291560848	652.826735042279	239.032882440124	506.512861292573	809.360650422831	153.673970873749	557.832702917713	700.656700864766	178.174541995647	587.166451812286	850.621703821704	33.997925918360	595.404661114894	793.974914357367	42.257823508395	362.393717982978	871.160378606865	37.232783882813	285.760483372424	955.609405533527	95.225730338199	317.474997928601	1083.036502984529	38.955382923941	291.802849802770	995.243652094491	1064.040866996646	86.872900990320	1103.414970247160	826.389146441023	83.263437266287	955.918116260365	1047.386719613251	676.712646126990	988.319301563673	788.700260529188	669.913063203358	
56	3.707142857143	786.784183594948	977.669293713824	399.251342314389	979.638535730764	1408.002070976936	228.573214030914	1080.901365987104	1328.175574543906	385.042675521877	1005.102600340072	1394.469471301451	564.766783872656	971.109169863181	1465.276410620051	390.618704080506	1020.937273854970	905.421732927111	506.166966964101	998.484463755686	935.802675582060	234.829118253813	1089.533099048983	723.341909964723	466.995411478433	1041.615293053757	608.168405793546	542.650599328454	1118.228171795525	559.178623915101	453.084990913496	1123.797285119046	443.696265809479	478.414958972986	1068.948740277035	734.204072307402	282.378961818139	1000.885695255349	603.154323242068	230.637391752355	1088.457098972010	538.828608834442	307.914043666565	1094.556998488110	460.648720947707	319.260879164656	1046.680309163859	386.590889982777	312.593127498236	937.173639840129	294.512448234352	255.260779123561	948.934489990919	178.196830923534	330.603120211039	1035.158325798450	383.506003368383	497.934781571314	909.218308301622	371.527510176457	563.123859437405	875.614071705798	262.351004470362	526.213804302565	664.864287360332	234.193952384240	503.720484596424	823.000097765297	153.897106594582	557.624109817114	713.503178268490	176.203049203233	585.837285104214	866.695521273682	35.622632514903	597.769410556945	788.341906933638	42.415367902262	362.226441184302	865.578781812507	37.278551525612	285.651170097892	950.065108883767	95.090154854275	317.585309418536	1077.435986872171	38.853780859737	291.728913289485	1003.508989404579	1063.310280839973	86.411577185931	1118.172889568948	828.568567104154	85.052040624790	939.092492870583	1047.770452144501	678.003810062047	959.448033791934	787.881934262367	678.130578491092	
57	3.726000000000	785.769322972339	976.109051589364	397.441538817615	981.102716113075	1406.925973811135	229.596762080441	1079.969844844342	1327.044588989138	387.508004837943	1001.225545840171	1392.911172505823	566.190623805325	970.238615877093	1464.028813464739	391.726870738302	1018.989838398199	904.453865904669	507.226348036492	999.611843575020	934.602795740429	235.550917865925	1091.428776238271	725.734009420292	467.137080709019	1046.709298954318	609.696957535320	542.864446109406	1124.430259601955	562.559430451534	453.147736551296	1133.030942838483	447.132527492609	478.642244680165	1069.165056693487	732.398471595066	283.535992387277	1001.020427853435	601.612106733545	231.305004091114	1087.567778329990	536.994253418908	309.663384160772	1093.262218904089	458.795235654821	321.239978948731	1044.537730550360	384.878904778475	313.998551287460	934.465892492553	293.923622776192	255.843019307219	944.480443616217	177.385239155033	331.045290102082	1045.386999821969	385.167614737866	498.284978608157	919.187418062916	371.002088071865	562.530646953338	888.450837967425	260.873633343567	526.131876421247	678.293054868870	226.071854951526	502.104903378859	838.736550546666	152.839123500620	558.052900892127	728.483079481937	171.564396858224	585.480469015388	886.341546871859	37.136798475803	600.531616381676	782.671032963263	42.520765811498	362.041375857545	859.969480838223	37.291485699812	285.522093150846	944.470956776706	94.974685868347	317.646471410808	1071.812920813118	38.779347039019	291.657296469325	1011.285889120291	1063.339902721368	86.345303914243	1133.363267749055	832.151944668416	87.484429883731	922.773337624462	1049.434775356475	678.803213745528	932.523014599210	789.107387310966	684.540671189387	
58	3.744857142857	784.799067184182	975.564472732977	395.991050211948	982.786732961491	1406.614914389789	230.888076277044	1079.136542252719	1326.786773954242	390.310329198626	997.380393546485	1392.502904321802	567.767316790584	969.498454935869	1463.641629008165	392.968931207533	1016.871633863306	904.300995547878	508.869561998179	1000.818353382750	934.208760591044	236.860540710146	1092.573677584607	728.745626934129	468.018568907846	1050.650905708721	611.939311039407	543.831775790328	1129.412051455733	566.504972188251	454.119560976302	1141.017957058525	451.483637113423	479.748122258674	1068.737700187251	730.974330947151	285.021195173975	1000.035300310575	600.767644699710	232.114014634275	1085.330367139229	535.530559792441	311.373674884678	1090.447071546229	457.471793337852	323.114143517857	1041.132651720771	383.771716900256	315.273036369884	930.808814318186	293.594782816330	256.346458994168	939.580060495295	176.860060419979	331.402805928611	1055.002851908741	387.382273659907	499.502906056219	929.047969427579	369.754128412821	563.051688470591	902.193257896207	258.575270240041	526.986960916392	693.288788927589	215.007802893297	501.884263144646	856.509396847228	150.592870897892	559.164231589420	745.683307654260	164.457902968150	586.217210588285	909.311239319282	38.506197878759	603.563997842313	776.963432529683	42.581702040467	361.844701256025	854.329586699460	37.278896173730	285.378793065841	938.828915513766	94.889807240301	317.650380364340	1066.164885416115	38.732400734924	291.587584118884	1018.627495351090	1064.245863737420	86.664894522104	1148.952152463602	837.334576758346	90.544698342642	907.185706949787	1052.397689070232	679.146769744817	907.885013005206	792.116408628015	689.135035648689	
